<?xml version="1.0" encoding="UTF-8" ?>
<!DOCTYPE svg PUBLIC "-//W3C//DTD SVG 1.1//EN" "http://www.w3.org/Graphics/SVG/1.1/DTD/svg11.dtd">
<svg width="164pt" height="120pt" viewBox="0 0 164 120" version="1.1" xmlns="http://www.w3.org/2000/svg">
<g id="#ffffffff">
</g>
<g id="#3772ffff">
<path fill="#3772ff" opacity="1.00" d=" M 7.41 3.38 C 9.31 1.23 12.58 0.76 15.14 1.88 C 16.89 2.82 18.19 4.38 19.88 5.42 C 26.34 5.65 32.82 5.41 39.29 5.51 C 44.89 24.96 50.61 44.38 56.28 63.81 C 76.30 63.62 96.34 63.89 116.37 63.67 C 117.52 60.10 118.81 56.59 119.98 53.02 C 101.99 52.88 84.00 52.84 66.01 52.75 C 66.01 50.58 66.01 48.41 66.01 46.24 C 84.66 46.26 103.31 46.24 121.97 46.26 C 123.39 42.54 124.71 38.79 125.98 35.02 C 105.99 34.97 85.99 35.02 66.00 35.00 C 66.00 32.67 66.00 30.33 66.00 28.00 C 92.52 27.98 119.05 28.04 145.57 27.97 C 146.47 24.98 147.38 21.99 148.29 19.00 C 120.86 19.00 93.43 19.00 66.00 19.00 C 66.00 16.67 66.00 14.33 66.00 12.00 C 96.50 12.00 127.01 12.00 157.51 12.00 C 151.25 31.55 144.66 50.99 138.29 70.50 C 109.29 70.54 80.28 70.43 51.28 70.56 C 46.89 56.00 42.59 41.42 38.35 26.82 C 36.90 21.94 35.89 16.90 33.83 12.21 C 29.29 12.38 24.75 12.04 20.22 12.36 C 17.47 15.07 13.25 17.59 9.34 15.85 C 4.36 14.12 3.53 6.62 7.41 3.38 M 132.88 34.93 C 129.40 44.45 126.61 54.19 123.36 63.78 C 126.78 63.74 130.20 63.74 133.62 63.75 C 136.58 54.13 139.98 44.64 142.97 35.02 C 139.61 35.01 136.24 35.02 132.88 34.93 Z" />
<path fill="#3772ff" opacity="1.00" d=" M 71.48 74.65 C 79.24 72.21 88.00 79.83 86.62 87.85 C 85.92 93.97 80.00 98.65 73.95 98.48 C 67.73 98.07 62.20 92.32 62.74 85.96 C 62.77 80.74 66.41 75.96 71.48 74.65 M 73.21 81.17 C 71.34 82.06 70.14 83.87 68.66 85.26 C 69.23 86.96 69.79 88.66 70.32 90.37 C 73.31 91.51 76.57 91.56 79.52 90.26 C 79.49 87.69 79.49 85.12 79.51 82.55 C 77.46 81.97 75.39 80.74 73.21 81.17 Z" />
<path fill="#3772ff" opacity="1.00" d=" M 105.42 74.56 C 112.20 72.68 119.65 78.15 120.36 85.04 C 121.24 92.23 114.28 99.21 107.08 98.36 C 100.67 97.80 95.48 91.44 96.17 85.04 C 96.83 80.13 100.62 75.80 105.42 74.56 M 103.36 82.46 C 103.26 85.45 102.38 89.66 105.84 91.16 C 110.23 93.87 116.24 87.34 112.71 83.32 C 110.61 80.02 106.33 81.39 103.36 82.46 Z" />
</g>
</svg>
