<?xml version="1.0" encoding="UTF-8" ?>
<!DOCTYPE svg PUBLIC "-//W3C//DTD SVG 1.1//EN" "http://www.w3.org/Graphics/SVG/1.1/DTD/svg11.dtd">
<svg width="430pt" height="82pt" viewBox="0 0 430 82" version="1.1" xmlns="http://www.w3.org/2000/svg">
<g id="#ffffffff">
</g>
<g id="#3772ffff">
<path fill="#3772ff" opacity="1.00" d=" M 4.90 11.98 C 1.96 8.59 4.42 2.61 8.94 2.49 C 11.44 2.04 13.08 4.22 14.76 5.65 C 19.63 5.74 24.51 5.70 29.38 5.69 C 33.71 20.28 37.82 34.93 42.23 49.49 C 57.22 49.49 72.20 49.49 87.18 49.49 C 88.13 46.76 89.11 44.05 90.02 41.31 C 76.52 41.21 63.01 41.29 49.51 41.27 C 49.49 39.59 49.49 37.91 49.52 36.23 C 63.53 36.30 77.53 36.22 91.53 36.27 C 92.58 33.48 93.56 30.66 94.54 27.84 C 79.52 27.80 64.50 27.83 49.49 27.82 C 49.48 26.10 49.48 24.37 49.49 22.65 C 69.37 22.62 89.26 22.68 109.15 22.61 C 109.82 20.32 110.52 18.03 111.20 15.74 C 90.62 15.73 70.04 15.76 49.47 15.72 C 49.47 14.01 49.49 12.30 49.50 10.59 C 72.39 10.60 95.27 10.55 118.16 10.61 C 113.62 25.34 108.53 39.90 103.73 54.55 C 82.00 54.54 60.26 54.54 38.53 54.55 C 35.03 43.61 32.14 32.48 28.73 21.51 C 27.57 17.95 27.14 14.10 25.35 10.77 C 21.89 10.52 18.41 10.67 14.94 10.75 C 12.74 13.92 7.58 15.26 4.90 11.98 M 92.66 49.48 C 95.17 49.49 97.68 49.49 100.19 49.49 C 102.43 42.24 105.06 35.11 107.24 27.83 C 104.72 27.82 102.20 27.82 99.68 27.81 C 97.47 35.08 94.80 42.19 92.66 49.48 Z" />
<path fill="#3772ff" opacity="1.00" d=" M 141.35 58.40 C 141.33 45.15 141.33 31.90 141.34 18.65 C 147.61 18.66 153.87 18.63 160.14 18.68 C 160.14 20.69 160.14 22.71 160.15 24.72 C 156.12 24.79 152.10 24.78 148.07 24.76 C 147.93 28.35 147.91 31.94 147.93 35.53 C 151.57 35.54 155.21 35.54 158.85 35.54 C 158.84 37.54 158.84 39.53 158.84 41.53 C 155.21 41.53 151.57 41.53 147.94 41.54 C 147.92 47.16 147.93 52.78 147.93 58.40 C 145.73 58.40 143.54 58.40 141.35 58.40 Z" />
<path fill="#3772ff" opacity="1.00" d=" M 168.02 18.64 C 173.71 18.72 179.40 18.54 185.08 18.69 C 187.54 18.45 189.94 20.49 189.84 23.01 C 189.95 28.25 190.24 33.55 189.62 38.76 C 188.92 41.64 185.54 41.51 183.25 41.80 C 185.84 47.35 188.45 52.90 191.14 58.40 C 188.70 58.40 186.26 58.40 183.82 58.40 C 180.68 52.60 178.57 46.25 174.85 40.77 C 174.28 46.63 174.63 52.53 174.54 58.41 C 172.31 58.40 170.08 58.38 167.86 58.36 C 168.37 45.12 167.79 31.89 168.02 18.64 M 174.57 24.77 C 174.54 28.36 174.54 31.95 174.54 35.55 C 177.49 35.53 180.43 35.55 183.38 35.49 C 183.48 31.93 183.47 28.36 183.36 24.79 C 180.43 24.77 177.50 24.78 174.57 24.77 Z" />
<path fill="#3772ff" opacity="1.00" d=" M 196.73 18.67 C 203.01 18.64 209.29 18.66 215.57 18.65 C 215.57 20.69 215.58 22.73 215.59 24.77 C 211.57 24.77 207.56 24.78 203.55 24.77 C 203.52 28.36 203.51 31.95 203.52 35.54 C 207.18 35.54 210.84 35.54 214.51 35.54 C 214.51 37.54 214.51 39.53 214.51 41.53 C 210.85 41.53 207.19 41.53 203.53 41.53 C 203.52 45.15 203.52 48.77 203.54 52.39 C 207.89 52.39 212.25 52.39 216.60 52.39 C 216.60 54.39 216.60 56.39 216.60 58.40 C 209.97 58.40 203.35 58.42 196.72 58.37 C 196.72 45.14 196.72 31.91 196.73 18.67 Z" />
<path fill="#3772ff" opacity="1.00" d=" M 223.61 22.91 C 223.45 20.59 225.70 18.66 227.93 18.73 C 233.08 18.48 238.24 18.74 243.39 18.66 C 243.39 20.69 243.39 22.73 243.40 24.76 C 239.06 24.78 234.73 24.77 230.39 24.78 C 230.20 28.36 230.20 31.94 230.35 35.52 C 234.76 35.50 239.24 35.26 243.56 36.40 C 244.91 43.33 244.96 50.66 243.53 57.58 C 236.97 59.09 230.20 58.16 223.54 58.39 C 223.54 56.39 223.54 54.39 223.54 52.39 C 228.27 52.29 233.04 52.72 237.75 52.09 C 238.15 48.62 237.96 45.11 237.88 41.62 C 234.31 41.49 230.74 41.69 227.18 41.42 C 225.01 41.37 223.39 39.12 223.58 37.04 C 223.48 32.34 223.42 27.62 223.61 22.91 Z" />
<path fill="#3772ff" opacity="1.00" d=" M 251.36 58.40 C 251.35 45.15 251.35 31.89 251.36 18.64 C 253.62 18.65 255.88 18.67 258.14 18.69 C 258.20 24.29 257.92 29.89 257.84 35.50 C 261.16 35.54 264.47 35.54 267.79 35.54 C 267.79 29.91 267.79 24.29 267.79 18.66 C 270.03 18.66 272.27 18.65 274.51 18.65 C 274.52 31.90 274.51 45.15 274.51 58.40 C 272.27 58.40 270.03 58.39 267.79 58.39 C 267.78 52.77 267.80 47.14 267.77 41.52 C 264.57 41.53 261.37 41.53 258.18 41.53 C 258.13 47.15 257.82 52.77 257.86 58.40 C 255.69 58.40 253.53 58.40 251.36 58.40 Z" />
<path fill="#3772ff" opacity="1.00" d=" M 299.24 23.94 C 299.03 21.64 300.54 19.09 302.94 18.80 C 307.89 18.42 312.85 18.75 317.81 18.66 C 317.80 20.70 317.81 22.74 317.81 24.79 C 314.17 24.81 310.52 24.55 306.90 24.93 C 305.06 25.92 305.99 28.31 305.72 29.98 C 305.97 37.47 305.28 44.98 306.22 52.43 C 310.49 52.39 314.76 52.38 319.03 52.40 C 319.02 54.39 319.02 56.39 319.03 58.39 C 313.66 58.28 308.27 58.69 302.92 58.21 C 300.39 58.02 298.98 55.44 299.23 53.11 C 299.20 43.39 299.19 33.66 299.24 23.94 Z" />
<path fill="#3772ff" opacity="1.00" d=" M 325.01 58.39 C 327.83 45.07 331.50 31.94 334.45 18.64 C 337.21 18.66 339.97 18.65 342.73 18.66 C 346.12 31.87 348.98 45.21 352.54 58.38 C 350.23 58.39 347.92 58.40 345.62 58.40 C 344.91 55.44 344.22 52.48 343.51 49.53 C 340.26 49.54 337.02 49.54 333.78 49.56 C 333.13 52.51 332.44 55.45 331.75 58.39 C 329.50 58.39 327.25 58.39 325.01 58.39 M 338.33 29.54 C 337.51 34.28 336.49 38.98 335.24 43.63 C 337.46 43.62 339.68 43.62 341.91 43.61 C 341.05 38.84 339.94 34.11 338.33 29.54 Z" />
<path fill="#3772ff" opacity="1.00" d=" M 358.14 18.65 C 364.11 18.75 370.08 18.46 376.05 18.75 C 378.66 18.78 380.58 21.39 380.33 23.89 C 380.31 28.85 380.65 33.86 380.09 38.80 C 379.00 41.56 375.86 41.51 373.40 41.76 C 376.16 47.24 378.77 52.80 381.31 58.39 C 378.86 58.40 376.42 58.40 373.98 58.40 C 370.98 52.51 368.89 46.09 364.95 40.74 C 364.52 46.62 364.78 52.52 364.71 58.40 C 362.52 58.40 360.33 58.40 358.14 58.40 C 358.14 45.15 358.14 31.90 358.14 18.65 M 364.81 25.56 C 364.56 28.87 364.72 32.19 364.73 35.51 C 367.64 35.54 370.56 35.54 373.48 35.52 C 373.60 32.02 373.61 28.52 373.56 25.02 C 370.70 25.08 367.32 23.89 364.81 25.56 Z" />
<path fill="#3772ff" opacity="1.00" d=" M 387.24 18.66 C 394.22 18.66 401.19 18.62 408.17 18.70 C 408.17 20.68 408.18 22.67 408.20 24.66 C 405.73 24.75 403.26 24.77 400.79 24.82 C 400.76 36.02 400.79 47.21 400.78 58.40 C 398.60 58.40 396.42 58.40 394.24 58.39 C 394.24 47.19 394.27 35.98 394.23 24.78 C 391.89 24.78 389.56 24.77 387.24 24.77 C 387.24 22.73 387.24 20.70 387.24 18.66 Z" />
<path fill="#3772ff" opacity="1.00" d=" M 79.35 57.52 C 84.21 56.36 89.34 60.05 90.25 64.85 C 91.38 70.22 86.46 75.81 81.03 75.55 C 76.12 75.55 71.90 70.91 72.11 66.05 C 72.33 62.03 75.45 58.43 79.35 57.52 M 77.50 63.71 C 77.50 65.85 76.75 68.78 79.19 69.94 C 82.43 72.24 87.19 67.61 84.72 64.36 C 83.08 61.63 79.82 62.55 77.50 63.71 Z" />
<path fill="#3772ff" opacity="1.00" d=" M 52.25 58.21 C 58.45 54.82 66.46 61.26 64.95 68.01 C 64.04 74.14 56.09 77.92 51.04 73.96 C 45.23 70.52 45.98 60.75 52.25 58.21 M 51.51 65.81 C 51.93 67.00 52.35 68.19 52.76 69.38 C 54.99 70.52 57.37 70.50 59.61 69.38 C 59.61 67.45 59.63 65.51 59.66 63.57 C 57.88 63.15 55.90 61.78 54.12 62.93 C 53.12 63.76 52.33 64.81 51.51 65.81 Z" />
</g>
</svg>
